<?xml version="1.0" standalone="no"?>
<svg xmlns="http://www.w3.org/2000/svg" width="24" height="24"><rect width="24" height="24" opacity="0"></rect><g mask="url(#hms_mask_0)"><path d="M2.35 4.7Q2.14 4.97 2.17 5.27Q2.21 5.57 2.47 5.76Q2.74 5.98 3.04 5.94Q3.34 5.9 3.53 5.64L3.53 5.64Q4.37 4.56 5.4 3.79L5.45 3.74Q5.69 3.53 5.7 3.25Q5.71 2.98 5.52 2.71Q5.33 2.45 5.02 2.41Q4.7 2.38 4.44 2.59Q3.34 3.46 2.35 4.7ZM2.5 12.24Q2.5 13.87 3.11 15.49Q3.72 17.11 4.75 18.38L3.46 19.7L3.43 19.73Q3.14 20.06 3.08 20.38Q3.02 20.69 3.31 20.95Q3.58 21.22 3.89 21.17Q4.2 21.12 4.51 20.83L4.54 20.81L5.86 19.49Q7.13 20.52 8.75 21.13Q10.37 21.74 12 21.74Q13.63 21.74 15.25 21.13Q16.87 20.52 18.14 19.49L19.46 20.81Q19.78 21.12 20.1 21.17Q20.42 21.22 20.69 20.95Q20.98 20.69 20.93 20.42Q20.88 20.16 20.57 19.82L20.54 19.8L19.25 18.48Q20.26 17.21 20.87 15.55Q21.48 13.9 21.48 12.24Q21.48 9.67 20.21 7.49Q18.94 5.3 16.75 4.03Q14.57 2.76 12 2.76Q9.41 2.76 7.22 4.03Q5.04 5.3 3.77 7.49Q2.5 9.67 2.5 12.24ZM18.48 2.71Q18.29 2.95 18.3 3.22Q18.31 3.48 18.5 3.7L18.6 3.79Q19.63 4.56 20.47 5.64L20.54 5.71Q20.74 5.93 21.01 5.94Q21.29 5.95 21.53 5.76Q21.79 5.57 21.83 5.27Q21.86 4.97 21.65 4.7Q20.66 3.46 19.56 2.59Q19.3 2.38 18.98 2.41Q18.67 2.45 18.48 2.71Z" fill="rgba(0,0,0,0.9019607843137255)"></path></g><defs><mask id="hms_mask_0"><rect width="24" height="24" fill="#ffffff"></rect><g><path d="M10.66 7.18Q10.66 6.84 10.87 6.64Q11.09 6.43 11.42 6.43Q11.76 6.43 11.98 6.64Q12.19 6.84 12.19 7.18L12.19 12.36L15.84 16.03L15.94 16.15Q16.1 16.39 16.08 16.64Q16.06 16.9 15.84 17.11Q15.6 17.35 15.31 17.35Q15.02 17.35 14.78 17.11L10.9 13.22Q10.78 13.1 10.72 12.97Q10.66 12.84 10.66 12.67L10.66 7.18Z" fill="#000000"></path></g></mask></defs></svg>