<?xml version="1.0" standalone="no"?>
<svg xmlns="http://www.w3.org/2000/svg" width="24" height="24"><rect width="24" height="24" opacity="0"></rect><g><path d="M4.34 11.26L11.26 4.32Q11.47 4.1 11.47 3.79Q11.47 3.48 11.26 3.26Q11.04 3.05 10.73 3.05Q10.42 3.05 10.2 3.26L2.57 10.9Q2.35 11.11 2.24 11.39Q2.14 11.66 2.14 12Q2.14 12.31 2.24 12.59Q2.35 12.86 2.57 13.08L10.22 20.71Q10.42 20.95 10.75 20.95Q11.09 20.95 11.28 20.71Q11.5 20.5 11.5 20.18Q11.5 19.87 11.28 19.66L4.44 12.74L21.12 12.74Q21.43 12.74 21.65 12.53Q21.86 12.31 21.86 12Q21.86 11.69 21.65 11.47Q21.43 11.26 21.12 11.26Z" fill="rgba(0,0,0,0.9019607843137255)"></path></g></svg>