<?xml version="1.0" standalone="no"?>
<svg xmlns="http://www.w3.org/2000/svg" width="24" height="24"><rect width="24" height="24" opacity="0"></rect><g><path d="M20.02 15.29Q19.63 14.78 19.63 14.16L19.63 9.79Q19.63 8.23 19 6.79Q18.36 5.35 17.14 4.27Q15.91 3.19 14.23 2.71Q14.04 1.99 13.42 1.54Q12.79 1.08 12 1.08Q11.21 1.08 10.57 1.55Q9.94 2.02 9.74 2.74Q7.34 3.48 5.84 5.42Q4.34 7.37 4.34 9.91L4.34 14.16Q4.34 14.78 3.96 15.29L2.83 16.7Q2.5 17.14 2.56 17.65Q2.62 18.17 2.99 18.53Q3.36 18.89 3.91 18.89L20.09 18.89Q20.64 18.89 21.01 18.53Q21.38 18.17 21.43 17.64Q21.48 17.11 21.14 16.7L20.02 15.29Z" fill="rgba(0,0,0,0.9019607843137255)"></path><path d="M9.38 20.11Q9.29 20.11 9.24 20.15Q9.19 20.18 9.17 20.28L9.17 20.3Q9.26 21.41 10.08 22.15Q10.9 22.9 12 22.9Q13.13 22.9 13.94 22.14Q14.76 21.38 14.83 20.28Q14.83 20.21 14.78 20.16Q14.74 20.11 14.64 20.11L9.38 20.11Z" fill="rgba(0,0,0,0.9019607843137255)"></path></g></svg>