<?xml version="1.0" standalone="no"?>
<svg xmlns="http://www.w3.org/2000/svg" width="24" height="24"><rect width="24" height="24" opacity="0"></rect><g><path d="M9.43 20.06Q9.34 20.06 9.28 20.12Q9.22 20.18 9.22 20.28Q9.31 21.36 10.13 22.12Q10.94 22.87 12.07 22.87Q12.79 22.87 13.43 22.52Q14.06 22.18 14.45 21.59Q14.83 21 14.88 20.28Q14.88 20.18 14.83 20.12Q14.78 20.06 14.69 20.06L9.43 20.06ZM4.78 7.63Q4.42 8.74 4.42 9.91L4.42 14.16Q4.42 14.47 4.31 14.75Q4.2 15.02 4.01 15.26L2.88 16.68Q2.64 16.99 2.6 17.38Q2.57 17.76 2.74 18.12Q2.93 18.48 3.25 18.68Q3.58 18.89 3.96 18.89L16.01 18.89L4.78 7.63ZM21.24 18.31Q21.36 18.14 21.36 18.12Q21.53 17.76 21.49 17.39Q21.46 17.02 21.19 16.68L20.09 15.26Q19.9 15.02 19.79 14.75Q19.68 14.47 19.68 14.16L19.68 9.79Q19.68 8.26 19.08 6.86Q18.48 5.47 17.38 4.43Q16.27 3.38 14.83 2.86L14.28 2.71Q14.09 1.99 13.48 1.54Q12.86 1.08 12.07 1.08Q11.26 1.08 10.63 1.54Q10.01 1.99 9.82 2.71Q8.54 3.1 7.58 3.79L7.44 3.91Q7.3 4.01 7.15 4.13L21.24 18.31Z" fill="rgba(0,0,0,0.9019607843137255)"></path><path d="M22.18 22.18Q22.39 21.96 22.39 21.65Q22.39 21.34 22.18 21.12L2.83 1.78Q2.62 1.54 2.3 1.54Q1.99 1.54 1.78 1.78Q1.56 1.97 1.56 2.29Q1.56 2.62 1.78 2.81L21.12 22.18Q21.34 22.39 21.65 22.39Q21.96 22.39 22.18 22.18Z" fill="rgba(0,0,0,0.9019607843137255)"></path></g></svg>