<?xml version="1.0" standalone="no"?>
<svg xmlns="http://www.w3.org/2000/svg" width="24" height="24"><rect width="24" height="24" opacity="0"></rect><g><path d="M16.99 2.5L16.99 2.14Q16.99 1.85 16.86 1.62Q16.73 1.39 16.5 1.26Q16.27 1.13 16.01 1.13Q15.74 1.13 15.5 1.26Q15.26 1.39 15.13 1.62Q15 1.85 15 2.14L15 2.5L9.02 2.5L9.02 2.14Q9.02 1.85 8.89 1.62Q8.76 1.39 8.52 1.26Q8.28 1.13 8.02 1.13Q7.75 1.13 7.51 1.26Q7.27 1.39 7.14 1.62Q7.01 1.85 7.01 2.14L7.01 2.5L4.99 2.5Q4.18 2.5 3.49 2.9Q2.81 3.31 2.4 4.01Q1.99 4.7 1.99 5.5L1.99 19.01Q1.99 19.82 2.4 20.51Q2.81 21.19 3.49 21.6Q4.18 22.01 4.99 22.01L19.01 22.01Q19.82 22.01 20.51 21.6Q21.19 21.19 21.6 20.51Q22.01 19.82 22.01 19.01L22.01 5.5Q22.01 4.68 21.6 4Q21.19 3.31 20.51 2.9Q19.82 2.5 19.01 2.5ZM7.01 4.01L7.01 4.2Q7.01 4.63 7.31 4.92Q7.61 5.21 8.02 5.21Q8.42 5.21 8.72 4.92Q9.02 4.63 9.02 4.2L9.02 4.01L15 4.01L15 4.2Q15 4.63 15.29 4.92Q15.58 5.21 15.98 5.21Q16.39 5.21 16.69 4.92Q16.99 4.63 16.99 4.2L16.99 4.01L18.98 4.01Q19.61 4.01 20.05 4.45Q20.5 4.9 20.5 5.5L20.5 7.7L3.5 7.7L3.5 5.5Q3.5 4.87 3.95 4.44Q4.39 4.01 4.99 4.01ZM4.99 20.52Q4.37 20.52 3.94 20.08Q3.5 19.63 3.5 19.01L3.5 9.22L20.5 9.22L20.5 19.01Q20.5 19.63 20.06 20.08Q19.63 20.52 19.01 20.52L4.99 20.52ZM6.48 13.34Q6.89 13.34 7.19 13.04Q7.49 12.74 7.49 12.34Q7.49 11.93 7.19 11.63Q6.89 11.33 6.48 11.33Q6.07 11.33 5.77 11.63Q5.47 11.93 5.47 12.34Q5.47 12.74 5.77 13.04Q6.07 13.34 6.48 13.34ZM10.2 13.34Q10.61 13.34 10.91 13.04Q11.21 12.74 11.21 12.34Q11.21 11.93 10.91 11.63Q10.61 11.33 10.2 11.33Q9.79 11.33 9.49 11.63Q9.19 11.93 9.19 12.34Q9.19 12.74 9.49 13.04Q9.79 13.34 10.2 13.34ZM13.94 13.34Q14.35 13.34 14.65 13.04Q14.95 12.74 14.95 12.34Q14.95 11.93 14.65 11.63Q14.35 11.33 13.94 11.33Q13.54 11.33 13.24 11.63Q12.94 11.93 12.94 12.34Q12.94 12.74 13.24 13.04Q13.54 13.34 13.94 13.34ZM17.66 13.34Q18.07 13.34 18.37 13.04Q18.67 12.74 18.67 12.34Q18.67 11.93 18.37 11.63Q18.07 11.33 17.66 11.33Q17.26 11.33 16.96 11.63Q16.66 11.93 16.66 12.34Q16.66 12.74 16.96 13.04Q17.26 13.34 17.66 13.34ZM6.48 17.35Q6.89 17.35 7.19 17.05Q7.49 16.75 7.49 16.34Q7.49 15.94 7.19 15.64Q6.89 15.34 6.48 15.34Q6.07 15.34 5.77 15.64Q5.47 15.94 5.47 16.34Q5.47 16.75 5.77 17.05Q6.07 17.35 6.48 17.35ZM10.2 17.35Q10.61 17.35 10.91 17.05Q11.21 16.75 11.21 16.34Q11.21 15.94 10.91 15.64Q10.61 15.34 10.2 15.34Q9.79 15.34 9.49 15.64Q9.19 15.94 9.19 16.34Q9.19 16.75 9.49 17.05Q9.79 17.35 10.2 17.35Z" fill="rgba(0,0,0,0.9019607843137255)"></path></g></svg>