<?xml version="1.0" standalone="no"?>
<svg xmlns="http://www.w3.org/2000/svg" width="24" height="24"><rect width="24" height="24" opacity="0"></rect><g><path d="M12 1.25Q9.07 1.25 6.6 2.7Q4.13 4.15 2.69 6.61Q1.25 9.07 1.25 12Q1.25 14.93 2.69 17.39Q4.13 19.85 6.6 21.3Q9.07 22.75 12 22.75Q14.9 22.75 17.38 21.3Q19.85 19.85 21.3 17.38Q22.75 14.9 22.75 12Q22.75 9.1 21.3 6.62Q19.85 4.15 17.38 2.7Q14.9 1.25 12 1.25ZM12 21.24Q9.5 21.24 7.38 20Q5.26 18.77 4.01 16.64Q2.76 14.52 2.76 12Q2.76 9.5 4.01 7.38Q5.26 5.26 7.38 4.01Q9.5 2.76 12 2.76Q14.52 2.76 16.64 4.01Q18.77 5.26 20 7.38Q21.24 9.5 21.24 12Q21.24 14.52 20 16.64Q18.77 18.77 16.64 20Q14.52 21.24 12 21.24Z" fill="rgba(0,0,0,0.9019607843137255)"></path><path d="M12.74 5.76Q12.74 5.45 12.53 5.22Q12.31 4.99 12 4.99Q11.69 4.99 11.47 5.22Q11.26 5.45 11.26 5.76L11.26 11.98Q11.26 12.29 11.4 12.46L11.47 12.53L16.63 17.71Q16.85 17.93 17.16 17.93Q17.47 17.93 17.69 17.71Q17.9 17.47 17.9 17.16Q17.9 16.85 17.69 16.63L12.74 11.69L12.74 5.76Z" fill="rgba(0,0,0,0.9019607843137255)"></path></g></svg>