<?xml version="1.0" standalone="no"?>
<svg xmlns="http://www.w3.org/2000/svg" width="24" height="24"><rect width="24" height="24" opacity="0"></rect><g><path d="M12 16.3Q11.38 16.3 10.92 16.74Q10.46 17.18 10.46 17.81Q10.46 18.43 10.92 18.89Q11.38 19.34 12 19.34Q12.62 19.34 13.07 18.89Q13.51 18.43 13.51 17.81Q13.51 17.18 13.07 16.74Q12.62 16.3 12 16.3ZM12 15.1Q12.34 15.1 12.58 14.86Q12.82 14.62 12.86 14.28L13.51 6.31Q13.56 5.64 13.12 5.15Q12.67 4.66 12 4.66Q11.57 4.66 11.2 4.88Q10.82 5.11 10.63 5.48Q10.44 5.86 10.46 6.31L11.14 14.28Q11.16 14.62 11.41 14.86Q11.66 15.1 12 15.1Z" fill="rgba(0,0,0,0.9019607843137255)"></path></g></svg>