<?xml version="1.0" standalone="no"?>
<svg xmlns="http://www.w3.org/2000/svg" width="24" height="24"><rect width="24" height="24" opacity="0"></rect><g><path d="M19.63 19.8Q19.94 19.8 20.16 19.58Q20.38 19.37 20.38 19.06Q20.38 18.74 20.16 18.52Q19.94 18.29 19.63 18.29L10.9 18.29Q10.58 18.29 10.37 18.52Q10.15 18.74 10.15 19.06Q10.15 19.37 10.37 19.58Q10.58 19.8 10.9 19.8L19.63 19.8Z" fill="rgba(0,0,0,0.9019607843137255)"></path><path d="M5.21 16.54Q4.82 17.04 4.73 17.23L3.58 19.25Q3.46 19.44 3.53 19.62Q3.6 19.8 3.79 19.86Q3.98 19.92 4.18 19.82L6.17 18.67Q6.65 18.43 6.89 18.22L5.21 16.54ZM7.42 17.83Q7.49 17.74 7.85 17.45L18.94 6.34Q19.32 5.93 19.32 5.39Q19.32 4.85 18.94 4.46Q18.55 4.08 18.01 4.08Q17.47 4.08 17.06 4.46L5.98 15.58Q5.88 15.67 5.78 15.78Q5.69 15.89 5.62 16.01L7.42 17.83ZM18.19 5.23Q18.31 5.33 18.31 5.51Q18.31 5.69 18.19 5.81L7.58 16.37L7.01 15.79L17.59 5.23Q17.71 5.11 17.89 5.11Q18.07 5.11 18.19 5.23Z" fill="rgba(0,0,0,0.9019607843137255)"></path></g></svg>