<?xml version="1.0" standalone="no"?>
<svg xmlns="http://www.w3.org/2000/svg" width="25" height="24"><rect width="25" height="24" opacity="0"></rect><g mask="url(#hms_mask_0)"><path d="M18.1 21.6Q19.11 21.6 19.98 21.1Q20.84 20.59 21.34 19.73Q21.85 18.86 21.85 17.86L21.85 6.36Q21.85 5.35 21.34 4.49Q20.84 3.62 19.98 3.12Q19.11 2.62 18.1 2.62L6.61 2.62Q5.58 2.62 4.71 3.12Q3.85 3.62 3.34 4.49Q2.84 5.35 2.84 6.36L2.84 17.86Q2.84 18.86 3.34 19.73Q3.85 20.59 4.71 21.1Q5.58 21.6 6.61 21.6L18.1 21.6ZM18.1 4.1Q19.02 4.1 19.69 4.76Q20.36 5.42 20.36 6.36L20.36 17.83Q20.36 18.77 19.69 19.43Q19.02 20.09 18.1 20.09L6.61 20.09Q5.67 20.09 5.01 19.43Q4.35 18.77 4.35 17.83L4.35 6.36Q4.35 5.42 5.01 4.76Q5.67 4.1 6.61 4.1L18.1 4.1Z" fill="rgba(0,0,0,0.9019607843137255)"></path></g><defs><mask id="hms_mask_0"><rect width="25" height="24" fill="#ffffff"></rect><g><path d="M23.86 0.65Q23.55 0.34 23.13 0.17Q22.71 0 22.26 0Q21.8 0 21.38 0.17Q20.96 0.34 20.65 0.65L11.1 10.22Q10.88 10.44 10.76 10.66L9.39 13.08Q9.2 13.46 9.2 13.86Q9.2 14.26 9.42 14.57Q9.61 14.9 9.96 15.11Q10.3 15.31 10.69 15.31Q11.05 15.31 11.38 15.12L13.83 13.73Q14.05 13.63 14.29 13.39L23.86 3.84Q24.51 3.17 24.51 2.24Q24.51 1.32 23.86 0.65Z" fill="#000000"></path></g></mask></defs><g><path d="M10.4 13.7Q10.33 13.82 10.38 13.94Q10.42 14.06 10.56 14.11Q10.69 14.16 10.81 14.11L12.61 13.1Q12.8 12.98 12.97 12.86L13.14 12.74L11.77 11.4L11.62 11.62Q11.55 11.71 11.52 11.77Q11.48 11.83 11.41 11.93L10.4 13.7ZM23.02 1.49Q22.71 1.18 22.27 1.18Q21.82 1.18 21.51 1.49L12.51 10.49L12.42 10.58Q12.34 10.68 12.25 10.8L13.71 12.26Q13.83 12.19 14.02 12L23.02 3Q23.36 2.69 23.36 2.24Q23.36 1.8 23.02 1.49Z" fill="rgba(0,0,0,0.9019607843137255)"></path></g></svg>